<svg width="512" height="512" viewBox="0 0 512 512" fill="none" xmlns="http://www.w3.org/2000/svg">
  <defs>
    <linearGradient id="glow" x1="0" y1="0" x2="1" y2="1">
      <stop offset="0%" stop-color="#ff3b3b"/>
      <stop offset="100%" stop-color="#ff0000"/>
    </linearGradient>
    <filter id="blur">
      <feGaussianBlur stdDeviation="8" />
    </filter>
  </defs>

  <!-- Glow -->
  <rect x="60" y="140" rx="28" ry="28" width="330" height="190" fill="url(#glow)" opacity="0.25" filter="url(#blur)"/>

  <!-- Card -->
  <rect x="70" y="150" rx="24" ry="24" width="300" height="170" fill="none" stroke="#ff2b2b" stroke-width="6"/>

  <!-- User Icon -->
  <circle cx="130" cy="215" r="18" stroke="#ff2b2b" stroke-width="5" fill="none"/>
  <path d="M105 250 Q130 230 155 250" stroke="#ff2b2b" stroke-width="5" fill="none"/>

  <!-- Lines -->
  <line x1="100" y1="265" x2="160" y2="265" stroke="#ff2b2b" stroke-width="4"/>
  <line x1="100" y1="280" x2="160" y2="280" stroke="#ff2b2b" stroke-width="4"/>

  <!-- Laravel Cube -->
  <path d="M210 240 L245 220 L280 240 L245 260 Z" fill="none" stroke="#ff2b2b" stroke-width="5"/>
  <path d="M210 240 L210 275 L245 295 L245 260" fill="none" stroke="#ff2b2b" stroke-width="5"/>
  <path d="M280 240 L280 275 L245 295" fill="none" stroke="#ff2b2b" stroke-width="5"/>

  <!-- Export Arrow -->
  <path d="M330 170 L430 130 L410 160 L470 160 L470 200 L410 200 L430 230 Z" fill="none" stroke="#ff2b2b" stroke-width="6"/>
</svg>
